<?xml version="1.0" encoding="utf-8"?>
<svg version="1.1" id="Capa_1" x="0px" y="0px" viewBox="0 0 384.97 384.97" style="enable-background:new 0 0 384.97 384.97;" xmlns="http://www.w3.org/2000/svg">
  <g>
    <g id="Menu">
      <path d="M 11.995 84.212 L 371.852 84.212 C 378.473 84.212 383.847 76.056 383.847 66.009 C 383.847 55.961 378.472 47.807 371.852 47.807 L 11.995 47.807 C 5.374 47.807 0 55.961 0 66.009 C 0 76.058 5.374 84.212 11.995 84.212 Z" style="fill: rgb(245, 245, 245);"/>
      <path d="M 372.939 166.987 L 12.03 166.987 C 5.389 166.987 0 175.394 0 185.751 C 0 196.108 5.39 204.515 12.03 204.515 L 372.939 204.515 C 379.58 204.515 384.969 196.108 384.969 185.751 C 384.969 175.394 379.58 166.987 372.939 166.987 Z" style="fill: rgb(245, 245, 245);"/>
      <path d="M 372.939 285.607 L 12.03 285.607 C 5.389 285.607 0 294.391 0 305.212 C 0 316.035 5.39 324.818 12.03 324.818 L 372.939 324.818 C 379.58 324.818 384.969 316.034 384.969 305.212 C 384.97 294.39 379.58 285.607 372.939 285.607 Z" style="fill: rgb(245, 245, 245);"/>
      <path d="M 372.939 285.607 L 12.03 285.607 C 5.389 285.607 0 294.391 0 305.212 C 0 316.035 5.39 324.818 12.03 324.818 L 372.939 324.818 C 379.58 324.818 384.969 316.034 384.969 305.212 C 384.97 294.39 379.58 285.607 372.939 285.607 Z" style="fill: rgb(245, 245, 245);"/>
    </g>
    <g/>
    <g/>
    <g/>
    <g/>
    <g/>
    <g/>
  </g>
  <g/>
  <g/>
  <g/>
  <g/>
  <g/>
  <g/>
  <g/>
  <g/>
  <g/>
  <g/>
  <g/>
  <g/>
  <g/>
  <g/>
  <g/>
</svg>